<svg width="206" height="84" viewBox="0 0 206 84" fill="none" xmlns="http://www.w3.org/2000/svg">
<g clip-path="url(#clip0_14_4)">
<rect width="206" height="84" fill="#3B82F6"/>
<path d="M31.1818 53.8276H23.2955V30.5549H31.3409C33.6515 30.5549 35.6364 31.0208 37.2955 31.9526C38.9621 32.8768 40.2424 34.2064 41.1364 35.9412C42.0303 37.6761 42.4773 39.7518 42.4773 42.1685C42.4773 44.5927 42.0265 46.6761 41.125 48.4185C40.2311 50.1609 38.9394 51.498 37.25 52.4299C35.5682 53.3617 33.5455 53.8276 31.1818 53.8276ZM27.5114 50.1799H30.9773C32.5985 50.1799 33.9508 49.8844 35.0341 49.2935C36.1174 48.695 36.9318 47.8049 37.4773 46.623C38.0227 45.4337 38.2955 43.9488 38.2955 42.1685C38.2955 40.3882 38.0227 38.9109 37.4773 37.7367C36.9318 36.5549 36.125 35.6723 35.0568 35.089C33.9962 34.498 32.678 34.2026 31.1023 34.2026H27.5114V50.1799ZM53.9148 54.1685C52.2102 54.1685 50.733 53.7935 49.483 53.0435C48.233 52.2935 47.2633 51.2443 46.5739 49.8958C45.892 48.5473 45.5511 46.9715 45.5511 45.1685C45.5511 43.3655 45.892 41.7859 46.5739 40.4299C47.2633 39.0738 48.233 38.0208 49.483 37.2708C50.733 36.5208 52.2102 36.1458 53.9148 36.1458C55.6193 36.1458 57.0966 36.5208 58.3466 37.2708C59.5966 38.0208 60.5625 39.0738 61.2443 40.4299C61.9337 41.7859 62.2784 43.3655 62.2784 45.1685C62.2784 46.9715 61.9337 48.5473 61.2443 49.8958C60.5625 51.2443 59.5966 52.2935 58.3466 53.0435C57.0966 53.7935 55.6193 54.1685 53.9148 54.1685ZM53.9375 50.873C54.8617 50.873 55.6345 50.6193 56.2557 50.1117C56.8769 49.5965 57.339 48.9071 57.642 48.0435C57.9527 47.1799 58.108 46.2177 58.108 45.1571C58.108 44.089 57.9527 43.123 57.642 42.2594C57.339 41.3882 56.8769 40.695 56.2557 40.1799C55.6345 39.6647 54.8617 39.4071 53.9375 39.4071C52.9905 39.4071 52.2027 39.6647 51.5739 40.1799C50.9527 40.695 50.4867 41.3882 50.1761 42.2594C49.8731 43.123 49.7216 44.089 49.7216 45.1571C49.7216 46.2177 49.8731 47.1799 50.1761 48.0435C50.4867 48.9071 50.9527 49.5965 51.5739 50.1117C52.2027 50.6193 52.9905 50.873 53.9375 50.873ZM69.8835 43.6003V53.8276H65.7699V36.373H69.7017V39.339H69.9062C70.3078 38.3617 70.9479 37.5852 71.8267 37.0094C72.7131 36.4337 73.8078 36.1458 75.1108 36.1458C76.3153 36.1458 77.3646 36.4033 78.2585 36.9185C79.16 37.4337 79.857 38.1799 80.3494 39.1571C80.8494 40.1344 81.0956 41.32 81.0881 42.714V53.8276H76.9744V43.3503C76.9744 42.1837 76.6714 41.2708 76.0653 40.6117C75.4669 39.9526 74.6373 39.623 73.5767 39.623C72.857 39.623 72.2169 39.7821 71.6562 40.1003C71.1032 40.4109 70.6676 40.8617 70.3494 41.4526C70.0388 42.0435 69.8835 42.7594 69.8835 43.6003ZM92.8835 54.1685C91.179 54.1685 89.7017 53.7935 88.4517 53.0435C87.2017 52.2935 86.232 51.2443 85.5426 49.8958C84.8608 48.5473 84.5199 46.9715 84.5199 45.1685C84.5199 43.3655 84.8608 41.7859 85.5426 40.4299C86.232 39.0738 87.2017 38.0208 88.4517 37.2708C89.7017 36.5208 91.179 36.1458 92.8835 36.1458C94.5881 36.1458 96.0653 36.5208 97.3153 37.2708C98.5653 38.0208 99.5313 39.0738 100.213 40.4299C100.902 41.7859 101.247 43.3655 101.247 45.1685C101.247 46.9715 100.902 48.5473 100.213 49.8958C99.5313 51.2443 98.5653 52.2935 97.3153 53.0435C96.0653 53.7935 94.5881 54.1685 92.8835 54.1685ZM92.9062 50.873C93.8305 50.873 94.6032 50.6193 95.2244 50.1117C95.8456 49.5965 96.3078 48.9071 96.6108 48.0435C96.9214 47.1799 97.0767 46.2177 97.0767 45.1571C97.0767 44.089 96.9214 43.123 96.6108 42.2594C96.3078 41.3882 95.8456 40.695 95.2244 40.1799C94.6032 39.6647 93.8305 39.4071 92.9062 39.4071C91.9593 39.4071 91.1714 39.6647 90.5426 40.1799C89.9214 40.695 89.4555 41.3882 89.1449 42.2594C88.8419 43.123 88.6903 44.089 88.6903 45.1571C88.6903 46.2177 88.8419 47.1799 89.1449 48.0435C89.4555 48.9071 89.9214 49.5965 90.5426 50.1117C91.1714 50.6193 91.9593 50.873 92.9062 50.873ZM104.739 53.8276V36.373H108.727V39.2821H108.909C109.227 38.2746 109.773 37.498 110.545 36.9526C111.326 36.3996 112.216 36.123 113.216 36.123C113.443 36.123 113.697 36.1344 113.977 36.1571C114.265 36.1723 114.504 36.1988 114.693 36.2367V40.0208C114.519 39.9602 114.242 39.9071 113.864 39.8617C113.492 39.8087 113.133 39.7821 112.784 39.7821C112.034 39.7821 111.36 39.945 110.761 40.2708C110.17 40.589 109.705 41.0321 109.364 41.6003C109.023 42.1685 108.852 42.8238 108.852 43.5662V53.8276H104.739ZM117.608 53.8276V30.5549H121.824V40.4071H132.608V30.5549H136.835V53.8276H132.608V43.9412H121.824V53.8276H117.608ZM152.364 46.4867V36.373H156.477V53.8276H152.489V50.7253H152.307C151.913 51.7026 151.265 52.5018 150.364 53.123C149.47 53.7443 148.367 54.0549 147.057 54.0549C145.913 54.0549 144.902 53.8011 144.023 53.2935C143.152 52.7783 142.47 52.0321 141.977 51.0549C141.485 50.07 141.239 48.8806 141.239 47.4867V36.373H145.352V46.8503C145.352 47.9564 145.655 48.8352 146.261 49.4867C146.867 50.1382 147.663 50.464 148.648 50.464C149.254 50.464 149.841 50.3162 150.409 50.0208C150.977 49.7253 151.443 49.2859 151.807 48.7026C152.178 48.1117 152.364 47.373 152.364 46.4867ZM160.889 53.8276V30.5549H165.003V39.2594H165.173C165.385 38.8352 165.685 38.3844 166.071 37.9071C166.457 37.4223 166.98 37.0094 167.639 36.6685C168.298 36.32 169.139 36.1458 170.162 36.1458C171.51 36.1458 172.726 36.4905 173.81 37.1799C174.901 37.8617 175.764 38.873 176.401 40.214C177.045 41.5473 177.366 43.1837 177.366 45.123C177.366 47.0397 177.052 48.6685 176.423 50.0094C175.795 51.3503 174.938 52.373 173.855 53.0776C172.772 53.7821 171.545 54.1344 170.173 54.1344C169.173 54.1344 168.344 53.9677 167.685 53.6344C167.026 53.3011 166.495 52.8996 166.094 52.4299C165.7 51.9526 165.393 51.5018 165.173 51.0776H164.935V53.8276H160.889ZM164.923 45.1003C164.923 46.2291 165.082 47.2177 165.401 48.0662C165.726 48.9147 166.192 49.5776 166.798 50.0549C167.412 50.5246 168.154 50.7594 169.026 50.7594C169.935 50.7594 170.696 50.517 171.31 50.0321C171.923 49.5397 172.385 48.8693 172.696 48.0208C173.014 47.1647 173.173 46.1912 173.173 45.1003C173.173 44.017 173.018 43.0549 172.707 42.214C172.397 41.373 171.935 40.714 171.321 40.2367C170.707 39.7594 169.942 39.5208 169.026 39.5208C168.147 39.5208 167.401 39.7518 166.787 40.214C166.173 40.6761 165.707 41.3238 165.389 42.1571C165.079 42.9905 164.923 43.9715 164.923 45.1003Z" fill="white"/>
</g>
<defs>
<clipPath id="clip0_14_4">
<rect width="206" height="84" fill="white"/>
</clipPath>
</defs>
</svg>
